<svg xmlns="http://www.w3.org/2000/svg" xmlns:xlink="http://www.w3.org/1999/xlink" width="180" zoomAndPan="magnify" viewBox="0 0 135 135.000003" height="180" preserveAspectRatio="xMidYMid meet" version="1.0"><defs><clipPath id="4504f7559e"><path d="M 41.769531 40.203125 L 93.140625 40.203125 L 93.140625 93.804688 L 41.769531 93.804688 Z M 41.769531 40.203125 " clip-rule="nonzero"/></clipPath></defs><g clip-path="url(#4504f7559e)"><path fill="#04d361" d="M 63.183594 93.546875 C 63.355469 93.714844 63.578125 93.804688 63.8125 93.804688 C 63.914062 93.804688 64.019531 93.785156 64.117188 93.75 L 84.183594 86.378906 C 84.390625 86.304688 84.558594 86.152344 84.664062 85.960938 L 86.078125 83.300781 L 87.125 83.351562 C 87.140625 83.351562 87.15625 83.351562 87.167969 83.351562 C 87.484375 83.351562 87.777344 83.183594 87.9375 82.910156 L 92.203125 75.652344 C 92.207031 75.644531 92.207031 75.636719 92.210938 75.628906 C 92.226562 75.597656 92.238281 75.570312 92.253906 75.539062 C 92.261719 75.515625 92.273438 75.488281 92.28125 75.464844 C 92.289062 75.4375 92.296875 75.40625 92.300781 75.378906 C 92.308594 75.351562 92.316406 75.324219 92.316406 75.292969 C 92.320312 75.265625 92.320312 75.238281 92.320312 75.207031 C 92.320312 75.179688 92.324219 75.152344 92.320312 75.125 C 92.316406 75.09375 92.3125 75.066406 92.304688 75.039062 C 92.300781 75.007812 92.296875 74.980469 92.289062 74.953125 C 92.28125 74.925781 92.269531 74.902344 92.261719 74.875 C 92.25 74.847656 92.238281 74.816406 92.222656 74.789062 C 92.21875 74.78125 92.21875 74.773438 92.210938 74.765625 L 91.105469 72.761719 L 92.980469 69.730469 C 92.988281 69.722656 92.992188 69.710938 92.996094 69.703125 C 93.011719 69.671875 93.023438 69.644531 93.039062 69.613281 C 93.050781 69.589844 93.058594 69.566406 93.066406 69.539062 C 93.078125 69.511719 93.085938 69.480469 93.089844 69.453125 C 93.097656 69.425781 93.101562 69.394531 93.105469 69.367188 C 93.109375 69.339844 93.109375 69.3125 93.113281 69.285156 C 93.113281 69.253906 93.113281 69.222656 93.109375 69.191406 C 93.109375 69.179688 93.109375 69.167969 93.109375 69.15625 L 91.023438 51.109375 C 90.984375 50.773438 90.757812 50.484375 90.4375 50.371094 L 62.320312 40.25 C 62.3125 40.246094 62.300781 40.246094 62.289062 40.242188 C 62.257812 40.234375 62.226562 40.226562 62.195312 40.21875 C 62.167969 40.214844 62.140625 40.210938 62.117188 40.207031 C 62.085938 40.203125 62.054688 40.203125 62.023438 40.203125 C 61.996094 40.203125 61.96875 40.203125 61.941406 40.203125 C 61.910156 40.207031 61.882812 40.210938 61.851562 40.21875 C 61.824219 40.222656 61.800781 40.226562 61.773438 40.234375 C 61.746094 40.242188 61.714844 40.253906 61.6875 40.265625 C 61.664062 40.277344 61.640625 40.285156 61.617188 40.296875 C 61.589844 40.3125 61.5625 40.328125 61.535156 40.347656 C 61.511719 40.359375 61.492188 40.375 61.472656 40.390625 C 61.449219 40.410156 61.425781 40.429688 61.402344 40.453125 C 61.382812 40.472656 61.363281 40.492188 61.34375 40.511719 C 61.324219 40.535156 61.308594 40.558594 61.292969 40.582031 C 61.273438 40.605469 61.257812 40.632812 61.242188 40.660156 C 61.238281 40.667969 61.230469 40.679688 61.222656 40.6875 L 57.050781 48.9375 C 57 49.035156 56.96875 49.140625 56.957031 49.253906 L 56.78125 51.011719 L 52.355469 50.425781 C 52.339844 50.421875 52.320312 50.425781 52.304688 50.421875 C 52.289062 50.421875 52.277344 50.421875 52.261719 50.421875 C 52.214844 50.421875 52.167969 50.421875 52.125 50.429688 C 52.117188 50.429688 52.105469 50.433594 52.097656 50.433594 C 52.050781 50.441406 52.003906 50.453125 51.957031 50.46875 C 51.949219 50.472656 51.941406 50.472656 51.933594 50.476562 C 51.886719 50.492188 51.84375 50.515625 51.800781 50.539062 C 51.792969 50.542969 51.785156 50.546875 51.777344 50.550781 C 51.738281 50.578125 51.699219 50.605469 51.660156 50.636719 C 51.65625 50.644531 51.648438 50.648438 51.640625 50.65625 C 51.605469 50.6875 51.570312 50.726562 51.539062 50.765625 C 51.535156 50.769531 51.53125 50.777344 51.527344 50.78125 C 51.496094 50.824219 51.46875 50.871094 51.441406 50.917969 C 51.441406 50.921875 51.441406 50.921875 51.4375 50.925781 L 47.703125 58.691406 C 47.589844 58.929688 47.585938 59.207031 47.695312 59.449219 L 49.097656 62.550781 L 46.351562 63.101562 C 46.074219 63.15625 45.839844 63.339844 45.71875 63.597656 L 41.949219 71.664062 C 41.789062 72.007812 41.859375 72.414062 42.128906 72.679688 Z M 56.890625 52.828125 L 56.746094 54.28125 L 56.382812 57.855469 L 53.480469 52.375 Z M 91.210938 68.265625 L 82.859375 65.289062 L 82.710938 59.863281 L 90.574219 62.753906 Z M 55.121094 73.511719 L 58.460938 80.136719 L 56.304688 84.214844 L 50.183594 78.148438 L 53.285156 71.65625 Z M 57.378906 59.84375 L 60.675781 53.925781 L 60.441406 57.96875 L 56.957031 64.023438 Z M 61.648438 57.734375 L 61.964844 52.238281 L 71.136719 55.609375 L 71.136719 61.113281 Z M 62.039062 50.996094 L 62.261719 47.125 L 71.136719 50.367188 L 71.136719 54.339844 Z M 61.296875 58.871094 L 70.878906 62.285156 L 66.964844 69.578125 C 66.949219 69.609375 66.945312 69.648438 66.933594 69.683594 L 56.964844 66.390625 Z M 74.941406 82.511719 L 74.609375 82.238281 L 75.644531 82.273438 Z M 72.902344 82.179688 C 72.925781 82.3125 72.988281 82.4375 73.097656 82.53125 L 73.613281 82.957031 L 67.628906 84.976562 L 64.179688 81.886719 Z M 60.617188 80.578125 L 64.296875 73.785156 L 72.941406 74.550781 L 69.6875 80.882812 Z M 64.324219 72.59375 L 62.589844 69.503906 L 74.742188 73.515625 Z M 60.917969 68.949219 L 63.28125 73.164062 L 59.652344 79.855469 L 56.277344 73.164062 L 58.847656 68.265625 Z M 59.121094 81.433594 C 59.132812 81.449219 59.144531 81.464844 59.15625 81.480469 C 59.164062 81.496094 59.171875 81.507812 59.179688 81.519531 C 59.226562 81.574219 59.277344 81.617188 59.339844 81.652344 C 59.34375 81.65625 59.347656 81.660156 59.351562 81.664062 C 59.371094 81.671875 59.390625 81.679688 59.410156 81.6875 C 59.429688 81.695312 59.449219 81.703125 59.472656 81.710938 C 59.507812 81.71875 59.539062 81.722656 59.574219 81.726562 C 59.585938 81.730469 59.601562 81.734375 59.613281 81.734375 L 62.453125 81.828125 C 62.484375 81.921875 62.53125 82.007812 62.609375 82.078125 L 66.753906 85.789062 L 63.792969 91.636719 L 57.1875 85.09375 Z M 67.910156 86.136719 L 73.597656 84.21875 L 70.90625 89.355469 L 65.222656 91.441406 Z M 75.230469 83.671875 L 78.296875 82.636719 C 78.4375 82.589844 78.542969 82.492188 78.613281 82.371094 L 79.242188 82.394531 C 79.242188 82.394531 79.246094 82.394531 79.246094 82.394531 C 79.246094 82.394531 79.25 82.394531 79.25 82.394531 L 80.390625 82.433594 L 78.085938 86.714844 L 72.570312 88.742188 Z M 71.003906 80.925781 L 74.21875 74.664062 L 79.679688 75.148438 L 81.855469 75.867188 L 78.90625 81.191406 Z M 68.058594 70.054688 L 72.011719 62.691406 L 81.429688 66.046875 L 77.683594 73.234375 Z M 81.65625 64.863281 L 72.324219 61.539062 L 72.324219 56.046875 L 81.507812 59.421875 Z M 72.324219 54.777344 L 72.324219 50.800781 L 81.363281 54.105469 L 81.476562 58.140625 Z M 72.324219 49.535156 L 72.324219 45.75 L 81.226562 48.953125 L 81.332031 52.824219 Z M 71.136719 49.097656 L 62.335938 45.882812 L 62.546875 42.230469 L 71.136719 45.324219 Z M 61.113281 46.382812 L 58.585938 50.898438 L 58.714844 49.597656 L 61.214844 44.660156 Z M 57.914062 54.53125 L 60.957031 49.097656 L 60.835938 51.195312 L 57.679688 56.859375 Z M 56.167969 59.988281 L 55.492188 66.667969 C 55.484375 66.738281 55.492188 66.808594 55.511719 66.875 C 55.515625 66.890625 55.523438 66.902344 55.527344 66.914062 C 55.546875 66.96875 55.570312 67.023438 55.601562 67.070312 C 55.617188 67.089844 55.632812 67.105469 55.652344 67.121094 C 55.683594 67.15625 55.71875 67.191406 55.761719 67.21875 C 55.769531 67.226562 55.777344 67.234375 55.789062 67.242188 C 55.8125 67.257812 55.839844 67.265625 55.867188 67.277344 C 55.878906 67.28125 55.886719 67.289062 55.898438 67.292969 L 57.703125 67.886719 L 55.617188 71.859375 L 52.65625 65.988281 L 55.882812 59.449219 Z M 49.289062 77.261719 L 43.832031 71.851562 L 46.929688 65.226562 L 52.398438 70.757812 Z M 79.769531 86.097656 L 81.71875 82.476562 L 84.445312 82.570312 L 83.25 84.820312 Z M 80.238281 81.234375 L 83.007812 76.246094 L 87.203125 77.632812 C 87.265625 77.65625 87.328125 77.664062 87.390625 77.664062 C 87.59375 77.664062 87.785156 77.5625 87.894531 77.382812 L 88.964844 75.660156 L 90.089844 75.71875 L 86.722656 81.453125 Z M 89.863281 74.203125 L 90.039062 74.523438 L 89.675781 74.503906 Z M 89.3125 72.265625 C 89.304688 72.277344 89.304688 72.289062 89.296875 72.296875 C 89.28125 72.328125 89.269531 72.355469 89.253906 72.386719 C 89.246094 72.410156 89.234375 72.4375 89.226562 72.460938 C 89.214844 72.488281 89.210938 72.515625 89.203125 72.546875 C 89.195312 72.574219 89.191406 72.601562 89.1875 72.628906 C 89.183594 72.660156 89.183594 72.6875 89.183594 72.714844 C 89.183594 72.746094 89.179688 72.773438 89.183594 72.800781 C 89.183594 72.832031 89.191406 72.859375 89.195312 72.886719 C 89.199219 72.914062 89.203125 72.945312 89.210938 72.972656 C 89.214844 72.976562 89.214844 72.984375 89.214844 72.988281 L 87.132812 76.355469 L 78.828125 73.613281 L 82.5625 66.449219 L 91.042969 69.46875 Z M 90.417969 61.429688 L 82.675781 58.582031 L 82.566406 54.542969 L 89.933594 57.234375 Z M 82.53125 53.261719 L 82.425781 49.386719 L 89.3125 51.863281 L 89.78125 55.910156 Z M 52.441406 52.960938 L 55.195312 58.15625 L 51.984375 64.65625 L 51.265625 63.230469 C 51.265625 63.21875 51.265625 63.210938 51.265625 63.199219 C 51.265625 63.167969 51.261719 63.132812 51.257812 63.101562 C 51.253906 63.078125 51.253906 63.054688 51.25 63.035156 C 51.25 63.03125 51.25 63.027344 51.246094 63.023438 C 51.242188 62.996094 51.230469 62.96875 51.222656 62.9375 C 51.210938 62.910156 51.203125 62.878906 51.191406 62.847656 C 51.191406 62.84375 51.1875 62.84375 51.1875 62.839844 L 49.492188 59.09375 Z M 53.375 70.054688 L 47.980469 64.597656 L 50.378906 64.117188 Z M 53.375 70.054688 " fill-opacity="1" fill-rule="nonzero"/></g></svg>