<svg data-v-423bf9ae="" xmlns="http://www.w3.org/2000/svg" viewBox="0 0 516 90" class="iconLeft"><!----><!----><!----><g data-v-423bf9ae="" id="b900e8eb-5d8e-4fde-885d-18fd80db1244" fill="#ffffff" transform="matrix(6.342494689011948,0,0,6.342494689011948,108.0338124852878,-7.642704901109717)"><path d="M0.31 12.84L3.40 3.75L5.47 3.75L8.46 12.84L6.71 12.84L6.08 10.88L2.70 10.88L2.06 12.84L0.31 12.84ZM4.41 5.73L3.12 9.63L5.67 9.63L4.41 5.73ZM16.81 6.54L16.81 6.54L16.81 6.54Q16.81 7.50 16.27 8.19L16.27 8.19L16.27 8.19Q15.72 8.88 14.70 9.14L14.70 9.14L17.14 12.84L14.98 12.84L12.98 9.30L11.72 9.30L11.72 12.84L10.07 12.84L10.07 3.75L13.43 3.75L13.43 3.75Q15.04 3.75 15.93 4.52L15.93 4.52L15.93 4.52Q16.81 5.26 16.81 6.54ZM11.72 8.19L13.27 8.19L13.27 8.19Q14.18 8.19 14.64 7.78L14.64 7.78L14.64 7.78Q15.11 7.36 15.11 6.69L15.11 6.69L15.11 6.69Q15.11 6.01 14.69 5.59L14.69 5.59L14.69 5.59Q14.27 5.18 13.43 5.18L13.43 5.18L11.72 5.18L11.72 8.19ZM22.34 3.57L22.34 3.57L22.34 3.57Q23.18 3.57 23.80 3.77L23.80 3.77L23.80 3.77Q24.42 3.98 24.86 4.34L24.86 4.34L24.86 4.34Q25.75 5.05 26.01 6.34L26.01 6.34L24.25 6.66L24.25 6.66Q24.02 5.95 23.55 5.51L23.55 5.51L23.55 5.51Q23.09 5.07 22.39 5.07L22.39 5.07L22.39 5.07Q21.43 5.07 20.85 5.87L20.85 5.87L20.85 5.87Q20.22 6.73 20.22 8.27L20.22 8.27L20.22 8.27Q20.22 9.80 20.78 10.66L20.78 10.66L20.78 10.66Q21.34 11.52 22.30 11.52L22.30 11.52L22.30 11.52Q23.27 11.52 23.76 11.05L23.76 11.05L23.76 11.05Q24.25 10.58 24.25 9.84L24.25 9.84L26.03 9.84L26.03 9.84Q26.03 11.37 25.05 12.20L25.05 12.20L25.05 12.20Q24.08 13.03 22.39 13.03L22.39 13.03L22.39 13.03Q20.58 13.03 19.52 11.77L19.52 11.77L19.52 11.77Q18.44 10.49 18.44 8.27L18.44 8.27L18.44 8.27Q18.44 6.03 19.54 4.77L19.54 4.77L19.54 4.77Q20.61 3.57 22.34 3.57ZM27.30 9.34L27.30 7.90L31.23 7.90L31.23 9.34L27.30 9.34ZM33.17 3.75L36.12 3.75L36.12 3.75Q38.19 3.75 39.47 4.98L39.47 4.98L39.47 4.98Q40.75 6.22 40.75 8.30L40.75 8.30L40.75 8.30Q40.75 10.37 39.47 11.61L39.47 11.61L39.47 11.61Q38.19 12.84 36.12 12.84L36.12 12.84L33.17 12.84L33.17 3.75ZM34.83 5.25L34.83 11.34L36.12 11.34L36.12 11.34Q37.41 11.34 38.21 10.47L38.21 10.47L38.21 10.47Q38.96 9.63 38.96 8.30L38.96 8.30L38.96 8.30Q38.96 6.94 38.21 6.10L38.21 6.10L38.21 6.10Q37.42 5.25 36.12 5.25L36.12 5.25L34.83 5.25ZM42.77 12.84L42.77 3.75L48.62 3.75L48.62 5.18L44.42 5.18L44.42 7.57L48.36 7.57L48.36 9.00L44.42 9.00L44.42 11.40L48.62 11.40L48.62 12.84L42.77 12.84ZM49.97 3.75L51.72 3.75L53.93 10.77L56.17 3.75L57.90 3.75L54.78 12.84L53.05 12.84L49.97 3.75ZM58.30 10.77L59.84 10.77L59.84 10.77Q59.86 11.73 61.25 11.73L61.25 11.73L61.25 11.73Q61.78 11.73 62.13 11.50L62.13 11.50L62.13 11.50Q62.47 11.27 62.47 10.96L62.47 10.96L62.47 10.96Q62.47 10.65 62.26 10.49L62.26 10.49L62.26 10.49Q62.05 10.32 61.60 10.18L61.60 10.18L60.12 9.65L60.12 9.65Q58.46 9.07 58.46 7.77L58.46 7.77L58.46 7.77Q58.46 6.90 59.24 6.38L59.24 6.38L59.24 6.38Q60.02 5.85 61.33 5.85L61.33 5.85L61.33 5.85Q62.64 5.85 63.34 6.43L63.34 6.43L63.34 6.43Q64.05 7.00 64.08 7.87L64.08 7.87L62.52 7.87L62.52 7.87Q62.50 7.53 62.20 7.34L62.20 7.34L62.20 7.34Q61.91 7.14 61.36 7.14L61.36 7.14L61.36 7.14Q60.82 7.14 60.52 7.36L60.52 7.36L60.52 7.36Q60.21 7.57 60.21 7.85L60.21 7.85L60.21 7.85Q60.21 8.34 61.04 8.58L61.04 8.58L62.65 9.18L62.65 9.18Q63.45 9.45 63.88 9.86L63.88 9.86L63.88 9.86Q64.30 10.28 64.30 10.93L64.30 10.93L64.30 10.93Q64.30 11.77 63.50 12.39L63.50 12.39L63.50 12.39Q62.68 13.03 61.32 13.03L61.32 13.03L61.32 13.03Q59.96 13.03 59.14 12.44L59.14 12.44L59.14 12.44Q58.31 11.84 58.30 10.77L58.30 10.77Z"></path></g><!----><g data-v-423bf9ae="" id="89c18436-81dc-46df-8477-c0bbfef44cd8" transform="matrix(2.8125,0,0,2.8125,0,0)" stroke="none" fill="#F6575E"><path d="M11.579 32H32L21.789 14.314z"></path><circle cx="8.683" cy="8.683" r="8.683"></circle></g><!----></svg>