<svg xmlns="http://www.w3.org/2000/svg" xmlns:xlink="http://www.w3.org/1999/xlink" width="1080" zoomAndPan="magnify" viewBox="0 0 810 809.999993" height="1080" preserveAspectRatio="xMidYMid meet" version="1.0"><defs><clipPath id="dbdbf12f9f"><path d="M 333 420 L 482 420 L 482 513.265625 L 333 513.265625 Z M 333 420 " clip-rule="nonzero"/></clipPath><clipPath id="61808aad07"><path d="M 243 207.265625 L 567 207.265625 L 567 412 L 243 412 Z M 243 207.265625 " clip-rule="nonzero"/></clipPath></defs><g clip-path="url(#dbdbf12f9f)"><path fill="#04d361" d="M 407.511719 420.230469 L 414.304688 424.546875 L 407.511719 428.859375 L 400.722656 424.546875 Z M 414.289062 433.160156 L 421.054688 437.453125 L 427.84375 433.160156 L 421.082031 428.859375 Z M 427.800781 441.738281 L 434.539062 446.011719 L 441.328125 441.738281 L 434.59375 437.453125 Z M 441.261719 450.28125 L 447.972656 454.539062 L 454.761719 450.28125 L 448.050781 446.011719 Z M 454.667969 458.789062 L 461.351562 463.03125 L 468.140625 458.789062 L 461.457031 454.539062 Z M 468.019531 467.265625 L 474.675781 471.488281 L 481.46875 467.265625 L 474.808594 463.03125 Z M 400.734375 433.160156 L 407.511719 437.453125 L 414.289062 433.160156 L 407.511719 428.859375 Z M 414.277344 441.738281 L 421.023438 446.011719 L 427.800781 441.738281 L 421.054688 437.453125 Z M 427.761719 450.28125 L 434.484375 454.539062 L 441.261719 450.28125 L 434.539062 446.011719 Z M 441.195312 458.789062 L 447.890625 463.03125 L 454.667969 458.789062 L 447.96875 454.539062 Z M 454.574219 467.265625 L 461.246094 471.488281 L 468.019531 467.265625 L 461.351562 463.03125 Z M 387.183594 433.160156 L 393.972656 437.453125 L 400.734375 433.160156 L 393.945312 428.859375 Z M 400.75 441.738281 L 407.511719 446.011719 L 414.277344 441.738281 L 407.511719 437.453125 Z M 414.261719 450.28125 L 421 454.539062 L 427.761719 450.28125 L 421.023438 446.011719 Z M 427.722656 458.789062 L 434.433594 463.03125 L 441.195312 458.789062 L 434.484375 454.539062 Z M 441.128906 467.265625 L 447.8125 471.488281 L 454.574219 467.265625 L 447.890625 463.03125 Z M 454.480469 475.707031 L 461.140625 479.914062 L 467.902344 475.707031 L 461.246094 471.488281 Z M 387.222656 441.738281 L 394 446.011719 L 400.75 441.738281 L 393.972656 437.453125 Z M 400.761719 450.28125 L 407.511719 454.539062 L 414.261719 450.28125 L 407.511719 446.011719 Z M 414.25 458.789062 L 420.972656 463.03125 L 427.722656 458.789062 L 421 454.539062 Z M 427.683594 467.265625 L 434.378906 471.488281 L 441.128906 467.265625 L 434.433594 463.03125 Z M 441.0625 475.707031 L 447.730469 479.914062 L 454.480469 475.707031 L 447.8125 471.488281 Z M 373.695312 441.738281 L 380.488281 446.011719 L 387.222656 441.738281 L 380.433594 437.453125 Z M 387.265625 450.28125 L 394.027344 454.539062 L 400.761719 450.28125 L 394 446.011719 Z M 400.777344 458.789062 L 407.511719 463.03125 L 414.25 458.789062 L 407.511719 454.539062 Z M 414.234375 467.265625 L 420.945312 471.488281 L 427.683594 467.265625 L 420.972656 463.03125 Z M 427.640625 475.707031 L 434.324219 479.914062 L 441.0625 475.707031 L 434.378906 471.488281 Z M 440.996094 484.113281 L 447.652344 488.308594 L 454.390625 484.113281 L 447.730469 479.914062 Z M 373.765625 450.28125 L 380.539062 454.539062 L 387.261719 450.28125 L 380.484375 446.011719 Z M 387.304688 458.789062 L 394.054688 463.03125 L 400.777344 458.789062 L 394.027344 454.539062 Z M 400.789062 467.265625 L 407.511719 471.488281 L 414.234375 467.265625 L 407.511719 463.03125 Z M 414.222656 475.707031 L 420.917969 479.914062 L 427.640625 475.707031 L 420.945312 471.488281 Z M 427.601562 484.113281 L 434.273438 488.308594 L 440.996094 484.113281 L 434.324219 479.914062 Z M 360.265625 450.28125 L 367.054688 454.539062 L 373.765625 450.28125 L 366.976562 446.011719 Z M 373.832031 458.789062 L 380.59375 463.03125 L 387.304688 458.789062 L 380.542969 454.539062 Z M 387.34375 467.265625 L 394.078125 471.488281 L 400.789062 467.265625 L 394.054688 463.03125 Z M 400.804688 475.707031 L 407.511719 479.914062 L 414.222656 475.707031 L 407.511719 471.488281 Z M 414.210938 484.113281 L 420.894531 488.308594 L 427.601562 484.113281 L 420.917969 479.914062 Z M 427.5625 492.492188 L 434.21875 496.667969 L 440.929688 492.492188 L 434.273438 488.308594 Z M 360.359375 458.789062 L 367.132812 463.03125 L 373.832031 458.789062 L 367.054688 454.539062 Z M 373.898438 467.265625 L 380.648438 471.488281 L 387.34375 467.265625 L 380.59375 463.03125 Z M 387.382812 475.707031 L 394.105469 479.914062 L 400.804688 475.707031 L 394.078125 471.488281 Z M 400.816406 484.113281 L 407.511719 488.308594 L 414.210938 484.113281 L 407.511719 479.914062 Z M 414.195312 492.492188 L 420.867188 496.667969 L 427.5625 492.492188 L 420.894531 488.308594 Z M 346.886719 458.789062 L 353.675781 463.03125 L 360.359375 458.789062 L 353.570312 454.539062 Z M 360.453125 467.265625 L 367.214844 471.488281 L 373.898438 467.265625 L 367.132812 463.03125 Z M 373.964844 475.707031 L 380.699219 479.914062 L 387.382812 475.707031 L 380.648438 471.488281 Z M 387.421875 484.113281 L 394.132812 488.308594 L 400.816406 484.113281 L 394.105469 479.914062 Z M 400.828125 492.492188 L 407.511719 496.667969 L 414.195312 492.492188 L 407.511719 488.308594 Z M 414.183594 500.832031 L 420.839844 504.992188 L 427.523438 500.832031 L 420.867188 496.667969 Z M 347.003906 467.265625 L 353.78125 471.488281 L 360.453125 467.265625 L 353.675781 463.03125 Z M 360.546875 475.707031 L 367.292969 479.914062 L 373.964844 475.707031 L 367.214844 471.488281 Z M 374.03125 484.113281 L 380.753906 488.308594 L 387.421875 484.113281 L 380.699219 479.914062 Z M 387.460938 492.492188 L 394.160156 496.667969 L 400.828125 492.492188 L 394.132812 488.308594 Z M 400.84375 500.832031 L 407.511719 504.992188 L 414.183594 500.832031 L 407.511719 496.667969 Z M 333.558594 467.265625 L 340.347656 471.488281 L 347.007812 467.265625 L 340.21875 463.03125 Z M 347.125 475.707031 L 353.886719 479.914062 L 360.546875 475.707031 L 353.78125 471.488281 Z M 360.636719 484.113281 L 367.375 488.308594 L 374.03125 484.113281 L 367.292969 479.914062 Z M 374.097656 492.492188 L 380.804688 496.667969 L 387.460938 492.492188 L 380.753906 488.308594 Z M 387.503906 500.832031 L 394.1875 504.992188 L 400.84375 500.832031 L 394.160156 496.667969 Z M 400.855469 509.144531 L 407.511719 513.285156 L 414.167969 509.144531 L 407.511719 504.992188 Z M 400.855469 509.144531 " fill-opacity="1" fill-rule="nonzero"/></g><path fill="#6b6d09" d="M 407.511719 359.03125 L 416.289062 364.613281 L 407.511719 370.183594 L 398.738281 364.613281 Z M 416.269531 375.742188 L 425.011719 381.289062 L 433.785156 375.742188 L 425.046875 370.183594 Z M 433.734375 386.828125 L 442.441406 392.351562 L 451.214844 386.828125 L 442.507812 381.289062 Z M 451.128906 397.867188 L 459.800781 403.371094 L 468.574219 397.867188 L 459.90625 392.351562 Z M 468.453125 408.863281 L 477.089844 414.34375 L 485.863281 408.863281 L 477.226562 403.371094 Z M 485.710938 419.816406 L 494.3125 425.277344 L 503.085938 419.816406 L 494.484375 414.34375 Z M 398.753906 375.742188 L 407.511719 381.289062 L 416.269531 375.742188 L 407.511719 370.183594 Z M 416.253906 386.828125 L 424.976562 392.351562 L 433.734375 386.824219 L 425.011719 381.289062 Z M 433.683594 397.867188 L 442.371094 403.371094 L 451.128906 397.867188 L 442.441406 392.351562 Z M 451.042969 408.863281 L 459.695312 414.34375 L 468.453125 408.863281 L 459.800781 403.371094 Z M 468.332031 419.816406 L 476.953125 425.277344 L 485.710938 419.816406 L 477.089844 414.34375 Z M 381.238281 375.742188 L 390.015625 381.289062 L 398.753906 375.742188 L 389.980469 370.179688 Z M 398.773438 386.828125 L 407.511719 392.351562 L 416.253906 386.828125 L 407.511719 381.289062 Z M 416.238281 397.867188 L 424.941406 403.371094 L 433.683594 397.867188 L 424.976562 392.351562 Z M 433.628906 408.863281 L 442.300781 414.34375 L 451.042969 408.863281 L 442.371094 403.371094 Z M 450.957031 419.816406 L 459.59375 425.277344 L 468.332031 419.816406 L 459.695312 414.34375 Z M 468.210938 430.726562 L 476.816406 436.167969 L 485.554688 430.726562 L 476.953125 425.277344 Z M 381.292969 386.828125 L 390.050781 392.351562 L 398.773438 386.828125 L 390.015625 381.289062 Z M 398.789062 397.867188 L 407.511719 403.371094 L 416.238281 397.867188 L 407.511719 392.351562 Z M 416.21875 408.863281 L 424.90625 414.34375 L 433.628906 408.863281 L 424.941406 403.371094 Z M 433.578125 419.816406 L 442.234375 425.277344 L 450.953125 419.816406 L 442.300781 414.34375 Z M 450.871094 430.726562 L 459.488281 436.167969 L 468.210938 430.726562 L 459.59375 425.277344 Z M 363.8125 386.828125 L 372.585938 392.351562 L 381.292969 386.828125 L 372.515625 381.289062 Z M 381.34375 397.867188 L 390.082031 403.371094 L 398.789062 397.867188 L 390.050781 392.351562 Z M 398.808594 408.863281 L 407.511719 414.34375 L 416.21875 408.863281 L 407.511719 403.371094 Z M 416.199219 419.816406 L 424.871094 425.277344 L 433.578125 419.816406 L 424.90625 414.34375 Z M 433.527344 430.726562 L 442.164062 436.167969 L 450.871094 430.726562 L 442.234375 425.277344 Z M 450.785156 441.59375 L 459.386719 447.011719 L 468.09375 441.59375 L 459.488281 436.167969 Z M 363.898438 397.867188 L 372.65625 403.371094 L 381.34375 397.867188 L 372.585938 392.351562 Z M 381.394531 408.863281 L 390.117188 414.34375 L 398.808594 408.863281 L 390.082031 403.371094 Z M 398.824219 419.816406 L 407.511719 425.277344 L 416.199219 419.816406 L 407.511719 414.34375 Z M 416.183594 430.726562 L 424.839844 436.167969 L 433.527344 430.726562 L 424.871094 425.277344 Z M 433.476562 441.59375 L 442.097656 447.011719 L 450.785156 441.59375 L 442.164062 436.167969 Z M 346.453125 397.867188 L 355.226562 403.371094 L 363.898438 397.867188 L 355.125 392.351562 Z M 363.984375 408.863281 L 372.722656 414.34375 L 381.394531 408.863281 L 372.65625 403.371094 Z M 381.445312 419.816406 L 390.152344 425.277344 L 398.824219 419.816406 L 390.117188 414.34375 Z M 398.839844 430.726562 L 407.511719 436.167969 L 416.183594 430.726562 L 407.511719 425.277344 Z M 416.167969 441.59375 L 424.804688 447.011719 L 433.476562 441.59375 L 424.839844 436.167969 Z M 433.425781 452.417969 L 442.027344 457.8125 L 450.699219 452.417969 L 442.097656 447.011719 Z M 346.574219 408.863281 L 355.332031 414.34375 L 363.984375 408.863281 L 355.226562 403.371094 Z M 364.070312 419.816406 L 372.792969 425.277344 L 381.445312 419.816406 L 372.722656 414.34375 Z M 381.5 430.726562 L 390.1875 436.167969 L 398.839844 430.726562 L 390.152344 425.277344 Z M 398.859375 441.59375 L 407.511719 447.011719 L 416.167969 441.59375 L 407.511719 436.167969 Z M 416.152344 452.417969 L 424.769531 457.8125 L 433.425781 452.417969 L 424.804688 447.011719 Z M 329.160156 408.863281 L 337.9375 414.34375 L 346.570312 408.863281 L 337.796875 403.371094 Z M 346.691406 419.816406 L 355.433594 425.277344 L 364.070312 419.816406 L 355.332031 414.34375 Z M 364.15625 430.726562 L 372.863281 436.167969 L 381.5 430.726562 L 372.792969 425.277344 Z M 381.550781 441.59375 L 390.222656 447.011719 L 398.859375 441.59375 L 390.1875 436.167969 Z M 398.875 452.417969 L 407.511719 457.8125 L 416.152344 452.417969 L 407.511719 447.011719 Z M 416.132812 463.199219 L 424.734375 468.574219 L 433.375 463.199219 L 424.769531 457.816406 Z M 329.316406 419.816406 L 338.074219 425.277344 L 346.691406 419.816406 L 337.9375 414.34375 Z M 346.8125 430.726562 L 355.535156 436.167969 L 364.15625 430.726562 L 355.433594 425.277344 Z M 364.242188 441.59375 L 372.929688 447.011719 L 381.550781 441.59375 L 372.863281 436.167969 Z M 381.601562 452.417969 L 390.253906 457.8125 L 398.875 452.417969 L 390.222656 447.011719 Z M 398.894531 463.199219 L 407.511719 468.574219 L 416.132812 463.199219 L 407.511719 457.816406 Z M 311.9375 419.816406 L 320.714844 425.277344 L 329.316406 419.816406 L 320.542969 414.34375 Z M 329.46875 430.726562 L 338.210938 436.167969 L 346.8125 430.726562 L 338.074219 425.277344 Z M 346.933594 441.59375 L 355.636719 447.011719 L 364.242188 441.59375 L 355.535156 436.167969 Z M 364.328125 452.417969 L 373 457.8125 L 381.601562 452.417969 L 372.929688 447.011719 Z M 381.652344 463.199219 L 390.289062 468.574219 L 398.894531 463.199219 L 390.253906 457.816406 Z M 398.910156 473.941406 L 407.511719 479.292969 L 416.117188 473.941406 L 407.511719 468.574219 Z M 398.910156 473.941406 " fill-opacity="1" fill-rule="nonzero"/><path fill="#09177d" d="M 405.195312 282.757812 L 416.992188 290.261719 L 405.195312 297.75 L 393.398438 290.261719 Z M 416.96875 305.222656 L 428.71875 312.679688 L 440.515625 305.222656 L 428.765625 297.75 Z M 440.445312 320.121094 L 452.148438 327.550781 L 463.945312 320.121094 L 452.242188 312.679688 Z M 463.828125 334.964844 L 475.484375 342.363281 L 487.28125 334.964844 L 475.625 327.550781 Z M 487.117188 349.75 L 498.730469 357.117188 L 510.527344 349.75 L 498.914062 342.363281 Z M 510.316406 364.472656 L 521.882812 371.8125 L 533.675781 364.472656 L 522.113281 357.117188 Z M 393.421875 305.222656 L 405.195312 312.679688 L 416.96875 305.222656 L 405.195312 297.75 Z M 416.945312 320.121094 L 428.671875 327.550781 L 440.445312 320.121094 L 428.71875 312.679688 Z M 440.375 334.964844 L 452.054688 342.363281 L 463.828125 334.964844 L 452.148438 327.550781 Z M 463.710938 349.75 L 475.34375 357.117188 L 487.117188 349.75 L 475.484375 342.363281 Z M 486.957031 364.472656 L 498.542969 371.8125 L 510.316406 364.472656 L 498.730469 357.117188 Z M 369.875 305.222656 L 381.671875 312.679688 L 393.421875 305.222656 L 381.625 297.75 Z M 393.445312 320.121094 L 405.195312 327.550781 L 416.945312 320.121094 L 405.195312 312.679688 Z M 416.921875 334.964844 L 428.625 342.363281 L 440.375 334.964844 L 428.671875 327.550781 Z M 440.304688 349.75 L 451.960938 357.117188 L 463.710938 349.75 L 452.054688 342.363281 Z M 463.597656 364.472656 L 475.207031 371.8125 L 486.957031 364.472656 L 475.34375 357.117188 Z M 486.792969 379.140625 L 498.359375 386.449219 L 510.109375 379.140625 L 498.542969 371.8125 Z M 369.945312 320.121094 L 381.71875 327.550781 L 393.445312 320.121094 L 381.671875 312.679688 Z M 393.46875 334.964844 L 405.195312 342.363281 L 416.921875 334.964844 L 405.195312 327.550781 Z M 416.898438 349.75 L 428.578125 357.117188 L 440.304688 349.75 L 428.625 342.363281 Z M 440.234375 364.472656 L 451.871094 371.8125 L 463.59375 364.472656 L 451.960938 357.117188 Z M 463.480469 379.140625 L 475.070312 386.449219 L 486.792969 379.140625 L 475.207031 371.8125 Z M 346.445312 320.121094 L 358.242188 327.550781 L 369.945312 320.121094 L 358.148438 312.679688 Z M 370.015625 334.964844 L 381.765625 342.363281 L 393.46875 334.964844 L 381.71875 327.550781 Z M 393.492188 349.75 L 405.195312 357.117188 L 416.898438 349.75 L 405.195312 342.363281 Z M 416.875 364.472656 L 428.53125 371.8125 L 440.238281 364.472656 L 428.578125 357.117188 Z M 440.167969 379.140625 L 451.777344 386.449219 L 463.480469 379.140625 L 451.871094 371.8125 Z M 463.367188 393.75 L 474.933594 401.03125 L 486.632812 393.75 L 475.070312 386.449219 Z M 346.5625 334.964844 L 358.335938 342.363281 L 370.015625 334.964844 L 358.242188 327.550781 Z M 370.085938 349.75 L 381.8125 357.117188 L 393.492188 349.75 L 381.765625 342.363281 Z M 393.515625 364.472656 L 405.195312 371.8125 L 416.875 364.472656 L 405.195312 357.117188 Z M 416.851562 379.140625 L 428.488281 386.449219 L 440.167969 379.140625 L 428.53125 371.8125 Z M 440.097656 393.75 L 451.6875 401.03125 L 463.363281 393.75 L 451.777344 386.449219 Z M 323.109375 334.964844 L 334.90625 342.363281 L 346.5625 334.964844 L 334.765625 327.550781 Z M 346.679688 349.75 L 358.429688 357.117188 L 370.085938 349.75 L 358.335938 342.363281 Z M 370.15625 364.472656 L 381.859375 371.8125 L 393.515625 364.472656 L 381.8125 357.117188 Z M 393.539062 379.140625 L 405.195312 386.449219 L 416.855469 379.140625 L 405.195312 371.8125 Z M 416.828125 393.75 L 428.441406 401.03125 L 440.097656 393.75 L 428.488281 386.449219 Z M 440.03125 408.300781 L 451.59375 415.554688 L 463.253906 408.300781 L 451.6875 401.03125 Z M 323.273438 349.75 L 335.046875 357.117188 L 346.679688 349.75 L 334.90625 342.363281 Z M 346.792969 364.472656 L 358.519531 371.8125 L 370.15625 364.472656 L 358.429688 357.117188 Z M 370.222656 379.140625 L 381.90625 386.449219 L 393.539062 379.140625 L 381.859375 371.8125 Z M 393.5625 393.75 L 405.195312 401.03125 L 416.828125 393.75 L 405.195312 386.449219 Z M 416.804688 408.300781 L 428.394531 415.554688 L 440.027344 408.300781 L 428.441406 401.03125 Z M 299.867188 349.75 L 311.664062 357.117188 L 323.273438 349.75 L 311.476562 342.363281 Z M 323.433594 364.472656 L 335.183594 371.8125 L 346.792969 364.472656 L 335.042969 357.117188 Z M 346.910156 379.140625 L 358.613281 386.449219 L 370.222656 379.140625 L 358.519531 371.8125 Z M 370.292969 393.75 L 381.949219 401.03125 L 393.5625 393.75 L 381.90625 386.449219 Z M 393.585938 408.300781 L 405.195312 415.554688 L 416.804688 408.300781 L 405.195312 401.03125 Z M 416.785156 422.792969 L 428.351562 430.019531 L 439.960938 422.792969 L 428.394531 415.554688 Z M 300.074219 364.472656 L 311.847656 371.8125 L 323.433594 364.472656 L 311.660156 357.117188 Z M 323.59375 379.140625 L 335.320312 386.449219 L 346.910156 379.140625 L 335.183594 371.8125 Z M 347.023438 393.75 L 358.703125 401.03125 L 370.292969 393.75 L 358.613281 386.449219 Z M 370.363281 408.300781 L 381.996094 415.554688 L 393.582031 408.300781 L 381.949219 401.03125 Z M 393.605469 422.792969 L 405.195312 430.019531 L 416.78125 422.792969 L 405.195312 415.554688 Z M 276.714844 364.472656 L 288.511719 371.8125 L 300.074219 364.472656 L 288.28125 357.117188 Z M 300.28125 379.140625 L 312.03125 386.449219 L 323.59375 379.140625 L 311.847656 371.8125 Z M 323.757812 393.75 L 335.460938 401.03125 L 347.023438 393.75 L 335.324219 386.449219 Z M 347.140625 408.300781 L 358.796875 415.554688 L 370.363281 408.300781 L 358.703125 401.03125 Z M 370.429688 422.792969 L 382.042969 430.019531 L 393.605469 422.792969 L 381.996094 415.554688 Z M 393.628906 437.230469 L 405.195312 444.429688 L 416.761719 437.230469 L 405.195312 430.019531 Z M 393.628906 437.230469 " fill-opacity="1" fill-rule="nonzero"/><g clip-path="url(#61808aad07)"><path fill="#4863f7" d="M 405.007812 207.265625 L 419.875 216.71875 L 405.007812 226.15625 L 390.140625 216.71875 Z M 419.84375 235.574219 L 434.652344 244.972656 L 449.519531 235.574219 L 434.710938 226.15625 Z M 449.429688 254.351562 L 464.179688 263.710938 L 479.042969 254.351562 L 464.296875 244.972656 Z M 478.898438 273.054688 L 493.585938 282.378906 L 508.453125 273.054688 L 493.761719 263.710938 Z M 508.246094 291.683594 L 522.878906 300.972656 L 537.746094 291.683594 L 523.113281 282.378906 Z M 537.480469 310.242188 L 552.054688 319.492188 L 566.921875 310.242188 L 552.347656 300.972656 Z M 390.171875 235.574219 L 405.007812 244.972656 L 419.847656 235.574219 L 405.007812 226.15625 Z M 419.816406 254.351562 L 434.59375 263.710938 L 449.429688 254.351562 L 434.652344 244.972656 Z M 449.339844 273.054688 L 464.0625 282.378906 L 478.898438 273.054688 L 464.175781 263.710938 Z M 478.75 291.683594 L 493.410156 300.972656 L 508.246094 291.683594 L 493.585938 282.378906 Z M 508.042969 310.242188 L 522.648438 319.492188 L 537.484375 310.242188 L 522.882812 300.972656 Z M 360.496094 235.574219 L 375.363281 244.972656 L 390.171875 235.574219 L 375.304688 226.15625 Z M 390.199219 254.351562 L 405.007812 263.710938 L 419.816406 254.351562 L 405.007812 244.972656 Z M 419.785156 273.054688 L 434.535156 282.378906 L 449.34375 273.054688 L 434.59375 263.710938 Z M 449.253906 291.683594 L 463.945312 300.972656 L 478.75 291.683594 L 464.0625 282.378906 Z M 478.605469 310.242188 L 493.238281 319.492188 L 508.042969 310.242188 L 493.410156 300.972656 Z M 507.839844 328.722656 L 522.414062 337.9375 L 537.222656 328.722656 L 522.644531 319.492188 Z M 360.585938 254.351562 L 375.425781 263.710938 L 390.203125 254.351562 L 375.363281 244.972656 Z M 390.230469 273.054688 L 405.007812 282.378906 L 419.785156 273.054688 L 405.007812 263.710938 Z M 419.757812 291.683594 L 434.476562 300.972656 L 449.253906 291.683594 L 434.535156 282.378906 Z M 449.167969 310.242188 L 463.828125 319.492188 L 478.605469 310.242188 L 463.945312 300.972656 Z M 478.460938 328.722656 L 493.0625 337.9375 L 507.839844 328.722656 L 493.238281 319.492188 Z M 330.972656 254.351562 L 345.839844 263.710938 L 360.585938 254.351562 L 345.722656 244.972656 Z M 360.675781 273.054688 L 375.480469 282.378906 L 390.230469 273.054688 L 375.425781 263.710938 Z M 390.261719 291.683594 L 405.007812 300.972656 L 419.757812 291.683594 L 405.007812 282.378906 Z M 419.726562 310.242188 L 434.417969 319.492188 L 449.167969 310.242188 L 434.476562 300.972656 Z M 449.078125 328.722656 L 463.710938 337.9375 L 478.460938 328.722656 L 463.828125 319.492188 Z M 478.316406 347.132812 L 492.890625 356.3125 L 507.636719 347.132812 L 493.0625 337.9375 Z M 331.117188 273.054688 L 345.953125 282.378906 L 360.675781 273.054688 L 345.835938 263.710938 Z M 360.761719 291.683594 L 375.539062 300.972656 L 390.257812 291.683594 L 375.480469 282.378906 Z M 390.289062 310.242188 L 405.007812 319.492188 L 419.726562 310.242188 L 405.007812 300.972656 Z M 419.699219 328.722656 L 434.359375 337.9375 L 449.078125 328.722656 L 434.417969 319.492188 Z M 448.992188 347.132812 L 463.59375 356.3125 L 478.316406 347.132812 L 463.710938 337.9375 Z M 301.5625 273.054688 L 316.429688 282.378906 L 331.117188 273.054688 L 316.253906 263.710938 Z M 331.265625 291.683594 L 346.074219 300.972656 L 360.761719 291.683594 L 345.957031 282.378906 Z M 360.851562 310.242188 L 375.597656 319.492188 L 390.289062 310.242188 L 375.539062 300.972656 Z M 390.316406 328.722656 L 405.007812 337.9375 L 419.699219 328.722656 L 405.007812 319.492188 Z M 419.667969 347.132812 L 434.300781 356.3125 L 448.992188 347.132812 L 434.359375 337.9375 Z M 448.90625 365.472656 L 463.480469 374.613281 L 478.171875 365.472656 L 463.597656 356.3125 Z M 301.769531 291.683594 L 316.605469 300.972656 L 331.265625 291.683594 L 316.429688 282.378906 Z M 331.410156 310.242188 L 346.1875 319.492188 L 360.847656 310.242188 L 346.070312 300.972656 Z M 360.9375 328.722656 L 375.65625 337.9375 L 390.316406 328.722656 L 375.597656 319.492188 Z M 390.347656 347.132812 L 405.007812 356.3125 L 419.671875 347.132812 L 405.007812 337.9375 Z M 419.640625 365.472656 L 434.246094 374.613281 L 448.90625 365.472656 L 434.300781 356.3125 Z M 272.269531 291.683594 L 287.136719 300.972656 L 301.769531 291.683594 L 286.902344 282.378906 Z M 301.972656 310.242188 L 316.777344 319.492188 L 331.410156 310.242188 L 316.605469 300.972656 Z M 331.554688 328.722656 L 346.304688 337.9375 L 360.9375 328.722656 L 346.1875 319.492188 Z M 361.023438 347.132812 L 375.714844 356.3125 L 390.347656 347.132812 L 375.65625 337.9375 Z M 390.375 365.472656 L 405.007812 374.613281 L 419.640625 365.472656 L 405.007812 356.3125 Z M 419.613281 383.738281 L 434.1875 392.84375 L 448.820312 383.738281 L 434.246094 374.613281 Z M 272.535156 310.242188 L 287.371094 319.492188 L 301.972656 310.242188 L 287.136719 300.972656 Z M 302.175781 328.722656 L 316.953125 337.9375 L 331.554688 328.722656 L 316.777344 319.492188 Z M 331.699219 347.132812 L 346.417969 356.3125 L 361.023438 347.132812 L 346.304688 337.9375 Z M 361.109375 365.472656 L 375.773438 374.613281 L 390.375 365.472656 L 375.714844 356.3125 Z M 390.40625 383.738281 L 405.007812 392.84375 L 419.609375 383.738281 L 405.007812 374.613281 Z M 243.09375 310.242188 L 257.960938 319.492188 L 272.535156 310.242188 L 257.667969 300.972656 Z M 272.796875 328.722656 L 287.601562 337.9375 L 302.175781 328.722656 L 287.371094 319.492188 Z M 302.378906 347.132812 L 317.125 356.3125 L 331.699219 347.132812 L 316.953125 337.9375 Z M 331.84375 365.472656 L 346.535156 374.613281 L 361.109375 365.472656 L 346.417969 356.3125 Z M 361.195312 383.738281 L 375.828125 392.84375 L 390.402344 383.738281 L 375.769531 374.613281 Z M 390.433594 401.929688 L 405.007812 411.003906 L 419.582031 401.929688 L 405.007812 392.84375 Z M 390.433594 401.929688 " fill-opacity="1" fill-rule="nonzero"/></g></svg>