<svg xmlns="http://www.w3.org/2000/svg" xmlns:xlink="http://www.w3.org/1999/xlink" width="180" zoomAndPan="magnify" viewBox="0 0 135 135.000003" height="180" preserveAspectRatio="xMidYMid meet" version="1.0"><defs><clipPath id="607fff9085"><path d="M 66.621094 55.394531 L 94.355469 55.394531 L 94.355469 86.769531 L 66.621094 86.769531 Z M 66.621094 55.394531 " clip-rule="nonzero"/></clipPath><clipPath id="1b135bc1dd"><path d="M 66.621094 62.796875 L 94.355469 62.796875 L 94.355469 71.972656 L 66.621094 71.972656 Z M 66.621094 62.796875 " clip-rule="nonzero"/></clipPath><clipPath id="d1e924db7d"><path d="M 79 70 L 82 70 L 82 86.769531 L 79 86.769531 Z M 79 70 " clip-rule="nonzero"/></clipPath><clipPath id="0fb7dcc7ce"><path d="M 41 55 L 69 55 L 69 86.769531 L 41 86.769531 Z M 41 55 " clip-rule="nonzero"/></clipPath><clipPath id="7431cb4503"><path d="M 53 70 L 56 70 L 56 86.769531 L 53 86.769531 Z M 53 70 " clip-rule="nonzero"/></clipPath><clipPath id="3de8a28e61"><path d="M 53 33.167969 L 82 33.167969 L 82 65 L 53 65 Z M 53 33.167969 " clip-rule="nonzero"/></clipPath></defs><g clip-path="url(#607fff9085)"><path fill="#4863f7" d="M 93.460938 78.484375 L 93.464844 78.484375 Z M 68.585938 77.96875 L 80.578125 84.855469 L 92.566406 77.96875 L 92.566406 64.195312 L 80.578125 57.308594 L 68.585938 64.195312 Z M 80.578125 86.769531 C 80.425781 86.769531 80.269531 86.730469 80.132812 86.652344 L 67.246094 79.25 C 66.972656 79.09375 66.800781 78.800781 66.800781 78.484375 L 66.800781 63.683594 C 66.800781 63.367188 66.972656 63.074219 67.246094 62.914062 L 80.132812 55.515625 C 80.40625 55.355469 80.75 55.355469 81.023438 55.515625 L 93.90625 62.914062 C 94.183594 63.074219 94.355469 63.367188 94.355469 63.683594 L 94.355469 78.484375 C 94.355469 78.800781 94.183594 79.09375 93.90625 79.25 L 81.023438 86.652344 C 80.886719 86.730469 80.730469 86.769531 80.578125 86.769531 " fill-opacity="1" fill-rule="nonzero"/></g><g clip-path="url(#1b135bc1dd)"><path fill="#0097b2" d="M 80.578125 71.972656 C 80.425781 71.972656 80.269531 71.933594 80.132812 71.851562 L 67.246094 64.453125 C 66.820312 64.207031 66.675781 63.664062 66.921875 63.238281 C 67.167969 62.816406 67.714844 62.667969 68.140625 62.914062 L 80.578125 70.058594 L 93.015625 62.914062 C 93.441406 62.667969 93.988281 62.816406 94.234375 63.238281 C 94.480469 63.664062 94.335938 64.207031 93.90625 64.453125 L 81.023438 71.851562 C 80.886719 71.933594 80.730469 71.972656 80.578125 71.972656 " fill-opacity="1" fill-rule="nonzero"/></g><g clip-path="url(#d1e924db7d)"><path fill="#0097b2" d="M 80.578125 86.769531 C 80.085938 86.769531 79.683594 86.371094 79.683594 85.882812 L 79.683594 71.082031 C 79.683594 70.59375 80.085938 70.195312 80.578125 70.195312 C 81.070312 70.195312 81.46875 70.59375 81.46875 71.082031 L 81.46875 85.882812 C 81.46875 86.371094 81.070312 86.769531 80.578125 86.769531 " fill-opacity="1" fill-rule="nonzero"/></g><g clip-path="url(#0fb7dcc7ce)"><path fill="#0097b2" d="M 67.695312 78.484375 L 67.699219 78.484375 Z M 42.820312 77.96875 L 54.808594 84.855469 L 66.800781 77.96875 L 66.800781 64.195312 L 54.808594 57.308594 L 42.820312 64.195312 Z M 54.808594 86.769531 C 54.65625 86.769531 54.503906 86.730469 54.363281 86.652344 L 41.480469 79.25 C 41.203125 79.09375 41.035156 78.800781 41.035156 78.484375 L 41.035156 63.683594 C 41.035156 63.367188 41.203125 63.074219 41.480469 62.914062 L 54.363281 55.515625 C 54.640625 55.355469 54.980469 55.355469 55.257812 55.515625 L 68.140625 62.914062 C 68.417969 63.074219 68.585938 63.367188 68.585938 63.683594 L 68.585938 78.484375 C 68.585938 78.800781 68.417969 79.09375 68.140625 79.25 L 55.257812 86.652344 C 55.117188 86.730469 54.964844 86.769531 54.808594 86.769531 " fill-opacity="1" fill-rule="nonzero"/></g><path fill="#0097b2" d="M 54.808594 71.972656 C 54.65625 71.972656 54.503906 71.933594 54.363281 71.851562 L 41.480469 64.453125 C 41.054688 64.207031 40.90625 63.664062 41.152344 63.238281 C 41.402344 62.816406 41.945312 62.667969 42.375 62.914062 L 54.808594 70.058594 L 67.246094 62.914062 C 67.675781 62.667969 68.21875 62.816406 68.46875 63.238281 C 68.714844 63.664062 68.566406 64.207031 68.140625 64.453125 L 55.257812 71.851562 C 55.117188 71.933594 54.964844 71.972656 54.808594 71.972656 " fill-opacity="1" fill-rule="nonzero"/><g clip-path="url(#7431cb4503)"><path fill="#0097b2" d="M 54.808594 86.769531 C 54.316406 86.769531 53.917969 86.371094 53.917969 85.882812 L 53.917969 71.082031 C 53.917969 70.59375 54.316406 70.195312 54.808594 70.195312 C 55.304688 70.195312 55.703125 70.59375 55.703125 71.082031 L 55.703125 85.882812 C 55.703125 86.371094 55.304688 86.769531 54.808594 86.769531 " fill-opacity="1" fill-rule="nonzero"/></g><g clip-path="url(#3de8a28e61)"><path fill="#0097b2" d="M 80.578125 56.285156 L 80.582031 56.285156 Z M 55.703125 55.769531 L 67.695312 62.660156 L 79.683594 55.769531 L 79.683594 41.996094 L 67.695312 35.109375 L 55.703125 41.996094 Z M 67.695312 64.570312 C 67.539062 64.570312 67.386719 64.53125 67.246094 64.453125 L 54.363281 57.054688 C 54.085938 56.894531 53.917969 56.601562 53.917969 56.285156 L 53.917969 41.484375 C 53.917969 41.167969 54.085938 40.875 54.363281 40.714844 L 67.246094 33.316406 C 67.523438 33.15625 67.863281 33.15625 68.140625 33.316406 L 81.023438 40.714844 C 81.300781 40.875 81.46875 41.167969 81.46875 41.484375 L 81.46875 56.285156 C 81.46875 56.601562 81.300781 56.894531 81.023438 57.054688 L 68.140625 64.453125 C 68.003906 64.53125 67.847656 64.570312 67.695312 64.570312 " fill-opacity="1" fill-rule="nonzero"/></g><path fill="#0097b2" d="M 67.695312 49.773438 C 67.539062 49.773438 67.386719 49.734375 67.246094 49.652344 L 54.363281 42.253906 C 53.9375 42.007812 53.792969 41.464844 54.039062 41.039062 C 54.285156 40.617188 54.832031 40.46875 55.257812 40.714844 L 67.695312 47.859375 L 80.132812 40.714844 C 80.558594 40.46875 81.105469 40.617188 81.351562 41.039062 C 81.597656 41.464844 81.453125 42.007812 81.023438 42.253906 L 68.140625 49.652344 C 68.003906 49.734375 67.847656 49.773438 67.695312 49.773438 " fill-opacity="1" fill-rule="nonzero"/><path fill="#0097b2" d="M 67.695312 64.570312 C 67.203125 64.570312 66.800781 64.175781 66.800781 63.683594 L 66.800781 48.882812 C 66.800781 48.394531 67.203125 47.996094 67.695312 47.996094 C 68.1875 47.996094 68.585938 48.394531 68.585938 48.882812 L 68.585938 63.683594 C 68.585938 64.175781 68.1875 64.570312 67.695312 64.570312 " fill-opacity="1" fill-rule="nonzero"/></svg>